<svg width="375" height="694" viewBox="0 0 375 694" fill="none" xmlns="http://www.w3.org/2000/svg">
<g clip-path="url(#clip0_1_2)">
<rect width="375" height="694" fill="#FAF1D7"/>
<path d="M191.314 703.216C218.21 703.231 245.107 703.244 272 703.259C255.178 679.488 238.352 655.717 221.53 631.942C217.756 626.61 213.656 621.398 210.161 615.878C206.622 610.293 208.24 601.751 208.205 595.266C208.136 582.164 208.067 569.059 207.998 555.957C207.744 507.355 207.491 458.75 207.234 410.147C206.738 315.629 206.243 221.11 205.748 126.592C205.422 64.0602 205.093 1.53169 204.767 -61H147.231C147.413 1.78871 147.595 64.5743 147.777 127.363C148.046 220.48 148.316 313.595 148.582 406.712C148.723 455.433 148.864 504.158 149.005 552.879C149.043 566.176 149.084 579.472 149.121 592.768C149.137 598.705 147.955 606.268 149.588 612.095C151.146 617.662 154.845 623.573 157.252 628.833C168.605 653.626 179.958 678.419 191.311 703.216H191.314Z" fill="#FFECB6"/>
<path d="M86.4517 705.034H167.564C157.92 679.946 148.272 654.861 138.627 629.773C136.468 624.159 133.932 618.567 132.117 612.841C130.233 606.901 131.239 599.849 131.227 593.705C131.199 580.992 131.171 568.276 131.145 555.562C131.039 506.634 130.932 457.703 130.826 408.774C130.622 315.287 130.418 221.8 130.215 128.316C130.08 65.9315 129.942 3.55026 129.807 -58.8341C110.628 -58.8341 91.4448 -58.8404 72.2653 -58.8404C72.2528 2.99234 72.2403 64.825 72.2277 126.655C72.2089 220.295 72.1901 313.936 72.1744 407.58C72.165 455.982 72.1557 504.384 72.1463 552.782C72.14 577.883 71.1401 602.782 74.8638 627.635C78.7285 653.435 82.5901 679.234 86.4548 705.034H86.4517Z" fill="#FF7878"/>
<path d="M-18.9589 704.222C7.93448 703.877 34.8278 703.529 61.7212 703.184C59.6242 677.2 57.5273 651.219 55.4272 625.234C53.4087 600.247 54.2487 575.112 54.2707 550.033C54.3145 501.679 54.3584 453.324 54.4023 404.969C54.4869 311.419 54.5747 217.866 54.6593 124.316C54.7157 62.5432 54.7722 0.770021 54.8286 -61H-2.70685C-2.91059 0.650912 -3.11117 62.3049 -3.31491 123.956C-3.62209 217.324 -3.92932 310.695 -4.23649 404.063C-4.39635 452.324 -4.55307 500.585 -4.71293 548.845C-4.79756 574.222 -4.25217 599.197 -7.77526 624.354C-11.5052 650.977 -15.232 677.601 -18.962 704.222H-18.9589Z" fill="#ADCAD8"/>
</g>
<defs>
<clipPath id="clip0_1_2">
<rect width="375" height="694" fill="white"/>
</clipPath>
</defs>
</svg>
