<svg width="26" height="26" viewBox="0 0 26 26" fill="none" xmlns="http://www.w3.org/2000/svg">
<path d="M0.975261 18.3495C1.62543 19.8541 2.5242 21.1802 3.67157 22.3277C4.81894 23.4753 6.18303 24.3743 7.76384 25.0246C9.34466 25.6749 10.9637 26 12.621 26C14.2018 26 15.7508 25.6876 17.2679 25.0628C18.7849 24.438 20.2191 23.4498 21.5705 22.0982C22.4884 21.1802 23.2597 20.039 23.8843 18.6746C24.509 17.3103 24.9934 15.7164 25.3377 13.8931C25.6819 12.0697 25.8922 10.0232 25.9687 7.75351C26.0452 5.48385 25.9815 2.99743 25.7775 0.294251C22.9218 0.0392334 20.3402 -0.0500226 18.0328 0.0264826C15.7253 0.102988 13.6728 0.326128 11.8752 0.695903C10.0777 1.06568 8.52238 1.56934 7.20928 2.20688C5.89618 2.84442 4.79344 3.60948 3.90104 4.50204C2.5242 5.87913 1.52982 7.35186 0.917893 8.92021C0.305964 10.4886 0 12.0761 0 13.6827C0 15.2893 0.325087 16.8449 0.975261 18.3495Z" fill="black"/>
</svg>
