<svg width="26" height="26" viewBox="0 0 26 26" fill="none" xmlns="http://www.w3.org/2000/svg">
<path d="M4.37874 21.6207C3.32151 20.5633 2.49386 19.3428 1.89322 17.9528C1.29604 16.5709 1 15.15 1 13.6827C1 12.2063 1.28057 10.7418 1.84949 9.2837C2.4039 7.86277 3.31393 6.50361 4.60822 5.20908C5.41058 4.40657 6.41779 3.70281 7.64605 3.10646C8.86808 2.51312 10.3408 2.0325 12.0767 1.67539C13.8068 1.3195 15.8013 1.10102 18.0659 1.02593C20.0959 0.958629 22.3533 1.02212 24.8402 1.21882C24.9938 3.56403 25.0363 5.7306 24.9693 7.71983C24.8941 9.94934 24.6879 11.9439 24.355 13.7076C24.0224 15.4692 23.5592 16.9826 22.9751 18.2583C22.3923 19.5311 21.6851 20.5693 20.8633 21.3912C19.5901 22.6646 18.2636 23.5712 16.887 24.1382C15.4861 24.7151 14.0662 25 12.621 25C11.0983 25 9.60827 24.702 8.14428 24.0998L7.76384 25.0246L8.14428 24.0998C6.67907 23.497 5.42772 22.6699 4.37874 21.6207Z" stroke="white" stroke-width="2"/>
</svg>
