<svg width="26" height="29" viewBox="0 0 26 29" fill="none" xmlns="http://www.w3.org/2000/svg">
<path d="M3.82504 14.1196V24.5814C3.82504 26.1102 5.06437 27.3495 6.59316 27.3495C8.39295 27.3495 9.58958 25.7178 9.54322 24.1367C9.52229 23.423 9.57152 22.6777 9.75252 22.0484C9.93363 21.4187 10.2145 21.0084 10.5826 20.7881C11.9059 19.9959 13.332 19.9959 14.6554 20.7881C15.029 21.0118 15.3251 21.4256 15.5328 22.047C15.7398 22.6666 15.8261 23.3994 15.8427 24.1054C15.8809 25.7259 17.1359 27.3495 18.9749 27.3495H19.2229C20.8369 27.3495 22.1452 26.0411 22.1452 24.4272V14.4001C22.1452 14.2167 22.2939 14.068 22.4774 14.068C24.6238 14.068 25.6304 11.4133 24.0237 9.9901L15.4328 2.38048C14.3268 1.40077 12.6635 1.40077 11.5575 2.38048L2.41298 10.4805C0.999462 11.7325 1.88507 14.068 3.77337 14.068C3.80191 14.068 3.82504 14.0911 3.82504 14.1196Z" stroke="white" stroke-width="2"/>
</svg>
