<svg width="23" height="25" viewBox="0 0 23 25" fill="none" xmlns="http://www.w3.org/2000/svg">
<path d="M2.82504 12.1196V22.5814C2.82504 23.5579 3.61666 24.3495 4.59316 24.3495C5.72322 24.3495 6.57677 23.2955 6.54365 22.166C6.49875 20.6348 6.741 18.7251 8.06895 17.9301C9.70854 16.9485 11.5294 16.9485 13.169 17.9301C14.4727 18.7106 14.8067 20.5655 14.8424 22.0818C14.8705 23.2716 15.7847 24.3495 16.9749 24.3495H17.2229C18.2846 24.3495 19.1452 23.4889 19.1452 22.4272V12.4001C19.1452 11.6644 19.7416 11.068 20.4774 11.068C21.7034 11.068 22.2784 9.55161 21.3606 8.73866L12.7698 1.12904C12.0422 0.484581 10.9481 0.484581 10.2205 1.12904L1.07604 9.22904C0.351484 9.87084 0.805438 11.068 1.77337 11.068C2.35419 11.068 2.82504 11.5388 2.82504 12.1196Z" fill="black" stroke="black"/>
</svg>
